<?xml version="1.0" standalone="no"?>
<!DOCTYPE svg PUBLIC "-//W3C//DTD SVG 20010904//EN"
 "http://www.w3.org/TR/2001/REC-SVG-20010904/DTD/svg10.dtd">
<svg version="1.0" xmlns="http://www.w3.org/2000/svg"
 width="606.000000pt" height="132.000000pt" viewBox="0 0 606.000000 132.000000"
 preserveAspectRatio="xMidYMid meet">
<metadata>
Created by potrace 1.15, written by Peter Selinger 2001-2017
</metadata>
<g transform="translate(0.000000,132.000000) scale(0.100000,-0.100000)"
fill="#000000" stroke="none">
<path d="M363 1079 l-23 -8 0 -391 c0 -251 4 -398 10 -411 12 -22 52 -25 69
-6 7 9 12 119 13 337 l3 323 308 -337 c315 -344 334 -361 366 -322 8 9 10 126
9 412 l-3 399 -42 3 -43 3 -2 -340 -3 -341 -308 339 c-170 187 -314 342 -320
344 -7 2 -22 1 -34 -4z"/>
<path d="M1177 1073 c-12 -11 -8 -782 3 -804 14 -25 56 -25 70 0 15 30 14 783
-2 799 -13 13 -60 16 -71 5z"/>
<path d="M1613 1065 c-225 -61 -358 -289 -299 -512 43 -161 158 -270 319 -303
113 -23 255 20 336 101 49 49 97 146 107 212 l6 47 239 0 239 0 0 -168 c0
-154 2 -170 19 -186 22 -20 54 -10 65 20 3 8 6 175 6 370 l0 354 110 0 110 0
0 -365 0 -365 25 -16 c24 -16 27 -15 45 1 19 17 20 34 22 336 l3 318 130 -169
c72 -93 138 -172 148 -175 9 -4 25 -4 35 -1 9 4 76 82 147 175 l130 169 5
-211 c5 -196 7 -216 28 -258 36 -72 87 -125 152 -158 80 -39 149 -47 231 -27
78 20 132 56 180 120 61 81 69 127 69 415 0 155 -4 260 -10 272 -12 21 -50 25
-68 7 -9 -9 -12 -87 -12 -288 l0 -276 -32 -54 c-107 -178 -365 -154 -433 41
-12 32 -15 99 -15 303 0 277 -2 286 -46 286 -26 0 -35 -11 -213 -245 -67 -88
-126 -160 -131 -160 -5 0 -78 90 -162 200 l-153 200 -310 3 c-171 1 -320 0
-332 -3 -26 -6 -39 -41 -23 -60 10 -12 41 -15 146 -15 l134 0 0 -150 0 -150
-240 0 -240 0 0 174 c0 185 -5 206 -49 206 -26 0 -39 -19 -43 -63 l-3 -38 -40
30 c-87 64 -219 86 -332 56z m234 -99 c29 -14 72 -43 97 -67 l46 -42 0 -78 0
-79 -153 0 c-162 0 -177 -4 -177 -47 0 -36 30 -43 184 -43 l146 0 0 -32 c0
-78 -77 -180 -169 -224 -51 -25 -147 -30 -214 -10 -75 22 -147 87 -189 173
-27 56 -32 75 -32 143 0 68 5 87 33 144 60 122 162 185 301 185 59 1 86 -4
127 -23z"/>
<path d="M4489 1067 c-154 -44 -227 -210 -136 -314 39 -44 92 -74 197 -112
135 -50 200 -105 200 -172 0 -62 -80 -131 -165 -142 -87 -12 -160 24 -233 117
-28 35 -70 0 -58 -47 10 -42 62 -94 124 -124 48 -24 69 -28 137 -28 162 1 274
93 275 225 0 105 -70 175 -245 245 -118 46 -155 70 -177 114 -38 75 46 161
157 161 59 0 115 -29 156 -80 18 -22 40 -40 49 -40 26 0 43 26 36 54 -7 30
-80 102 -127 127 -49 25 -133 32 -190 16z"/>
<path d="M4922 674 c3 -375 4 -408 21 -418 12 -8 22 -8 35 0 16 10 17 41 17
415 l0 404 -38 3 -37 3 2 -407z"/>
<path d="M5407 1070 c-97 -25 -200 -100 -256 -188 -84 -134 -81 -326 8 -455
38 -55 99 -110 152 -137 46 -24 155 -50 210 -50 130 0 341 137 303 198 -20 32
-52 26 -95 -17 -77 -77 -188 -107 -300 -81 -106 24 -180 86 -227 189 -38 82
-37 196 1 268 55 106 133 167 237 189 106 22 210 -9 295 -87 44 -41 63 -47 83
-27 22 22 12 51 -34 96 -70 67 -153 102 -255 107 -46 2 -101 0 -122 -5z"/>
</g>
</svg>
